<svg xmlns="http://www.w3.org/2000/svg" width="221" height="56" viewBox="0 0 221 56">
  <g fill="none" transform="translate(-1)">
    <path fill="#1A4052" d="M77.9560547,53.8720703 L77.9560547,1.953125 C77.9560547,1.20116812 78.3092413,0.825195312 79.015625,0.825195312 L85.9541016,0.825195312 C87.366869,0.961914746 88.2612286,1.13281147 88.637207,1.33789062 C89.0131855,1.54296978 89.5657516,2.13541177 90.2949219,3.11523438 L111.999023,34.8339844 L111.999023,1.953125 C111.999023,1.20116812 112.340817,0.825195312 113.024414,0.825195312 L121.945312,0.825195312 C122.62891,0.825195312 122.970703,1.20116812 122.970703,1.953125 L122.970703,53.8720703 C122.970703,54.6240272 122.62891,55 121.945312,55 L115.416992,55 C113.913078,55 112.750981,54.4189511 111.930664,53.2568359 L88.9619141,19.5898438 L88.9619141,53.8720703 C88.9619141,54.6240272 88.6087275,55 87.9023438,55 L79.015625,55 C78.3092413,55 77.9560547,54.6240272 77.9560547,53.8720703 Z M132.130859,53.8720703 L132.130859,16.8554688 C132.130859,16.149085 132.484046,15.7958984 133.19043,15.7958984 L141.427734,15.7958984 C142.134118,15.7958984 142.487305,16.149085 142.487305,16.8554688 L142.487305,53.8720703 C142.487305,54.6240272 142.134118,55 141.427734,55 L133.19043,55 C132.484046,55 132.130859,54.6240272 132.130859,53.8720703 Z M149.665039,35.4150391 C149.665039,31.0628038 149.898598,27.7075313 150.365723,25.3491211 C150.832847,22.9907109 151.693028,21.0481847 152.946289,19.5214844 C154.26791,17.9492109 156.016753,16.8782581 158.192871,16.3085938 C160.368989,15.7389294 163.450826,15.4541016 167.438477,15.4541016 C172.041364,15.4541016 175.846665,15.7617157 178.854492,16.3769531 C179.652022,16.5136726 180.050781,16.9693972 180.050781,17.7441406 L180.050781,23.28125 C180.050781,24.0332069 179.652022,24.4091797 178.854492,24.4091797 L167.438477,24.4091797 C164.29393,24.4091797 162.265955,25.1041597 161.354492,26.4941406 C160.465816,27.8385484 160.021484,30.8121515 160.021484,35.4150391 C160.021484,39.9267804 160.465816,42.8889903 161.354492,44.3017578 C162.265955,45.6917387 164.29393,46.3867188 167.438477,46.3867188 L178.854492,46.3867188 C179.652022,46.3867188 180.050781,46.7399053 180.050781,47.4462891 L180.050781,53.0517578 C180.050781,53.8037147 179.652022,54.2480462 178.854492,54.3847656 C175.801092,55.0227896 171.995791,55.3417969 167.438477,55.3417969 C163.473613,55.3417969 160.397472,55.0626656 158.209961,54.5043945 C156.02245,53.9461235 154.26791,52.9036535 152.946289,51.3769531 C151.670241,49.7818931 150.804364,47.8051876 150.348633,45.4467773 C149.892901,43.0883671 149.665039,39.7444878 149.665039,35.4150391 Z M186.613281,53.8720703 L186.613281,1.953125 C186.613281,1.20116812 186.966468,0.825195312 187.672852,0.825195312 L195.910156,0.825195312 C196.61654,0.825195312 196.969727,1.20116812 196.969727,1.953125 L196.969727,29.2285156 L206.984375,16.5136719 C207.326174,16.0351539 207.816078,15.7958984 208.454102,15.7958984 L217.887695,15.7958984 C218.616866,15.7958984 218.981445,15.9667952 218.981445,16.3085938 C218.981445,16.5136729 218.833335,16.7871077 218.537109,17.1289062 L207.257812,31.2109375 L221.613281,53.1201172 C221.81836,53.5074889 221.920898,53.8378893 221.920898,54.1113281 C221.920898,54.703779 221.419601,55 220.416992,55 L211.598633,55 C210.869462,55 210.356772,54.7379583 210.060547,54.2138672 L196.969727,33.5693359 L196.969727,53.8720703 C196.969727,54.6240272 196.61654,55 195.910156,55 L187.672852,55 C186.966468,55 186.613281,54.6240272 186.613281,53.8720703 Z"/>
    <path fill="#1A3E52" d="M11,18 L17,42 L4.6750947,42 C3.01824045,42 1.6750947,40.6568542 1.6750947,39 C1.6750947,38.5685764 1.76814555,38.1422279 1.94790023,37.7500359 L11,18 L11,18 Z"/>
    <polygon fill="#296480" points="31 18 11 18 19 54 34 25"/>
    <path fill="#57A3BD" d="M40.2058893,54 L19.6995827,54 C19.1035133,54 18.8366538,53.5522847 19.1035355,53 L44.2315995,1 C44.4984811,0.44771525 45.1980412,0 45.7941107,0 L66.3004173,0 C66.8964867,0 67.1633462,0.44771525 66.8964645,1 L41.7684005,53 C41.5904794,53.3681898 41.0696423,53.7015232 40.2058893,54 Z"/>
  </g>
</svg>
